<svg width="20" height="27" viewBox="0 0 20 27" fill="none" xmlns="http://www.w3.org/2000/svg">
<path d="M9.94069 0C15.4213 0 19.8806 4.45929 19.8806 9.94042C19.8806 11.3701 19.5879 12.7351 19.0112 13.9979C16.526 19.4362 11.7611 25.1779 10.3596 26.808C10.2546 26.9298 10.1015 27 9.94042 27C9.77932 27 9.62624 26.9298 9.52123 26.808C8.12028 25.1782 3.35538 19.4368 0.86931 13.9979C0.292351 12.7351 0 11.3701 0 9.94042C0.000553131 4.45929 4.45984 0 9.94069 0ZM9.94069 15.1035C12.7876 15.1035 15.104 12.7871 15.104 9.94014C15.104 7.09292 12.7876 4.77651 9.94069 4.77651C7.09374 4.77651 4.77733 7.09292 4.77733 9.94014C4.77706 12.7871 7.09347 15.1035 9.94069 15.1035Z" fill="black"/>
</svg>
