<svg width="202" height="23" viewBox="0 0 202 23" fill="none" xmlns="http://www.w3.org/2000/svg">
<path d="M0.89917 22.1216V21.0998L11.1213 5.21396H1.39571V1.28906H17.6289V2.31087L7.39243 18.2015H18.0729V22.1216H0.89917Z" fill="black"/>
<path d="M22.5562 1.28906H38.1781V5.18054H26.9391V9.66409H36.7935V13.5508H26.9391V18.2349H38.3118V22.1216H22.5562V1.28906Z" fill="black"/>
<path d="M47.345 22.1216H42.9238V1.28906H51.3985C56.6504 1.28906 59.0137 3.79584 59.0137 7.65389C59.0137 9.96013 58.1878 12.1995 55.8149 13.4887L60.5607 22.1216H55.643L51.6277 14.6299C51.198 14.6633 50.773 14.6633 50.3099 14.6633C49.3186 14.656 48.3286 14.5906 47.345 14.4676V22.1216ZM47.345 10.6191C48.3439 10.818 49.3584 10.9282 50.3768 10.9485C52.4871 10.9485 54.4971 10.323 54.4971 7.84966C54.4971 5.96838 53.0648 5.11369 50.6394 5.11369H47.345V10.6191Z" fill="black"/>
<path d="M64.0557 11.8C64.1177 5.34018 68.5675 0.923828 75.1275 0.923828C81.6876 0.923828 86.1087 5.34018 86.1708 11.8C86.1039 18.2312 81.7544 22.7144 75.1275 22.7144C68.5006 22.7144 64.1177 18.2312 64.0557 11.8ZM81.5253 11.8C81.5253 7.61759 78.7895 5.01075 75.1275 5.01075C71.4656 5.01075 68.768 7.61759 68.768 11.8C68.768 15.9824 71.4703 18.5606 75.1275 18.5606C78.7847 18.5606 81.5253 15.9872 81.5253 11.8Z" fill="black"/>
<path d="M108.749 22.124H104.094V0.333984H112.688C119.1 0.333984 121.482 3.85266 121.482 8.05885C121.482 13.788 117.066 15.884 112.549 15.884C111.279 15.9021 110.009 15.7982 108.758 15.5736L108.749 22.124ZM108.749 11.7446C109.787 11.8999 110.836 11.9702 111.886 11.9547C114.574 11.9547 116.608 10.8853 116.608 7.95381C116.608 5.99156 115.748 4.40171 112.406 4.40171H108.749V11.7446Z" fill="black"/>
<path d="M126.844 0.333984H131.499V22.124H126.844V0.333984Z" fill="black"/>
<path d="M136.531 22.124V21.0546L147.221 4.43991H137.052V0.333984H153.996V1.40343L143.325 18.0229H154.474V22.124H136.531Z" fill="black"/>
<path d="M158.351 22.124V21.0546L169.041 4.43991H158.871V0.333984H175.83V1.40343L165.145 18.0229H176.312V22.124H158.351Z" fill="black"/>
<path d="M178.036 22.1235H201.101L199.024 18.0234H180.06L178.036 22.1235Z" fill="black"/>
<path d="M198.269 16.4663L190.105 0.333984H188.826L180.867 16.4663H198.269Z" fill="black"/>
</svg>
