<?xml version="1.0" encoding="utf-8"?>
<!-- Generator: Adobe Illustrator 23.0.4, SVG Export Plug-In . SVG Version: 6.00 Build 0)  -->
<svg version="1.1" id="Layer_1" xmlns="http://www.w3.org/2000/svg" xmlns:xlink="http://www.w3.org/1999/xlink" x="0px" y="0px"
	 viewBox="0 0 320 92" style="enable-background:new 0 0 320 92;" xml:space="preserve">
<style type="text/css">
	.st0{fill:#E4A92E;}
</style>
<path class="st0" d="M333.3,0H-12.4v91.8h345.7V0z"/>
<path d="M34.1,59.2v-1.3l12.8-20H34.7V33h20.4v1.3l-12.9,20h13.4v4.9H34.1z"/>
<path d="M61.3,33h19.6v4.9H66.8v5.6h12.4v4.9H66.8v5.9h14.3v4.9H61.3V33z"/>
<path d="M92.4,59.2h-5.6V33h10.6c6.6,0,9.6,3.1,9.6,8c0,2.9-1,5.7-4,7.3l6,10.8h-6.2l-5-9.4c-0.5,0-1.1,0-1.7,0
	c-1.2,0-2.5-0.1-3.7-0.2V59.2z M92.4,44.8c1.3,0.2,2.5,0.4,3.8,0.4c2.7,0,5.2-0.8,5.2-3.9c0-2.4-1.8-3.4-4.8-3.4h-4.1V44.8z"/>
<path d="M113.4,46.2c0.1-8.1,5.7-13.7,13.9-13.7s13.8,5.5,13.9,13.7c-0.1,8.1-5.5,13.7-13.9,13.7S113.5,54.3,113.4,46.2z
	 M135.4,46.2c0-5.3-3.4-8.5-8-8.5c-4.6,0-8,3.3-8,8.5s3.4,8.5,8,8.5C131.9,54.7,135.4,51.5,135.4,46.2z"/>
<path d="M169.6,59.2h-5.8V31.8h10.8c8.1,0,11.1,4.4,11.1,9.7c0,7.2-5.5,9.8-11.2,9.8c-1.6,0-3.2-0.1-4.8-0.4L169.6,59.2z
	 M169.6,46.2c1.3,0.2,2.6,0.3,3.9,0.3c3.4,0,5.9-1.3,5.9-5c0-2.5-1.1-4.5-5.3-4.5h-4.6V46.2z"/>
<path d="M192.3,31.8h5.8v27.4h-5.8V31.8z"/>
<path d="M204.5,59.2v-1.3L217.9,37h-12.8v-5.2h21.3v1.3L213,54.1h14v5.2H204.5z"/>
<path d="M231.9,59.2v-1.3L245.4,37h-12.8v-5.2h21.3v1.3l-13.4,20.9h14v5.2H231.9z"/>
<path d="M256.7,59.2h29l-2.6-5.2h-23.8L256.7,59.2z"/>
<path d="M282.1,52.1l-10.3-20.3h-1.6l-10,20.3H282.1z"/>
<path class="st0" d="M271.8,35.3c0.1,0.1,0.1,0.2,0.2,0.3c0,0.1,0,0.2,0,0.3c0,0.1,0,0.2-0.1,0.3c-0.1,0.1-0.1,0.2-0.2,0.2
	c-0.2,0.1-0.4,0.2-0.6,0.2c-0.2,0-0.4-0.1-0.6-0.3c-0.1-0.1-0.1-0.2-0.2-0.3c0-0.1,0-0.2,0-0.3c0-0.1,0-0.2,0.1-0.3
	c0.1-0.1,0.1-0.2,0.2-0.2c0.2-0.1,0.4-0.2,0.6-0.2C271.5,35,271.7,35.1,271.8,35.3z"/>
<path class="st0" d="M266.1,47c-0.1-0.1-0.2-0.3-0.2-0.4c0-0.1,0-0.3,0-0.4c0-0.1,0.1-0.3,0.2-0.4c0.1-0.1,0.2-0.2,0.3-0.3
	c0.3-0.2,0.6-0.3,0.9-0.2c0.3,0,0.6,0.2,0.8,0.4c0.1,0.1,0.2,0.3,0.2,0.4c0,0.1,0,0.3,0,0.4c0,0.1-0.1,0.3-0.2,0.4s-0.2,0.2-0.3,0.3
	c-0.3,0.2-0.6,0.3-0.9,0.2C266.5,47.4,266.2,47.3,266.1,47z"/>
<path class="st0" d="M266.7,46.6c0,0-0.1-0.1-0.1-0.2c0-0.1,0-0.1,0-0.2s0-0.1,0.1-0.2c0,0,0.1-0.1,0.1-0.1c0.1-0.1,0.2-0.1,0.3-0.1
	c0.1,0,0.2,0.1,0.3,0.2c0,0,0.1,0.1,0.1,0.2c0,0.1,0,0.1,0,0.2c0,0.1,0,0.1-0.1,0.2c0,0-0.1,0.1-0.1,0.1c-0.1,0.1-0.2,0.1-0.3,0.1
	C266.8,46.7,266.7,46.7,266.7,46.6z"/>
<path class="st0" d="M267.6,49.8c-0.2,0-0.3-0.1-0.4-0.2c-0.1-0.1-0.1-0.3-0.1-0.4c0-0.1,0-0.2,0.1-0.2c0-0.1,0.1-0.1,0.2-0.2
	c0.1,0,0.1-0.1,0.2-0.1s0.2,0,0.2,0c0.2,0,0.3,0.1,0.4,0.2c0.1,0.1,0.1,0.3,0.1,0.4c0,0.1,0,0.2-0.1,0.2c0,0.1-0.1,0.1-0.2,0.2
	c-0.1,0-0.1,0.1-0.2,0.1C267.7,49.8,267.6,49.8,267.6,49.8z"/>
<path class="st0" d="M277.8,50.5c-0.2,0-0.3-0.1-0.4-0.2c-0.1-0.1-0.1-0.3-0.1-0.4c0-0.1,0-0.2,0.1-0.2c0-0.1,0.1-0.1,0.2-0.2
	c0.1,0,0.1-0.1,0.2-0.1s0.2,0,0.2,0c0.2,0,0.3,0.1,0.4,0.2c0.1,0.1,0.1,0.3,0.1,0.4c0,0.1,0,0.2-0.1,0.2c0,0.1-0.1,0.1-0.2,0.2
	c-0.1,0-0.1,0.1-0.2,0.1C278,50.5,277.9,50.5,277.8,50.5z"/>
<path class="st0" d="M269.2,40.5c-0.1,0-0.2-0.1-0.4-0.1c-0.1-0.1-0.2-0.1-0.3-0.2c-0.1-0.1-0.1-0.2-0.2-0.3c0-0.1,0-0.3,0-0.4
	c0-0.3,0.2-0.5,0.4-0.6s0.5-0.2,0.7-0.2c0.1,0,0.2,0.1,0.4,0.1c0.1,0.1,0.2,0.1,0.3,0.2c0.1,0.1,0.1,0.2,0.2,0.3c0,0.1,0,0.3,0,0.4
	c0,0.3-0.2,0.5-0.4,0.6C269.7,40.4,269.5,40.5,269.2,40.5z"/>
<path class="st0" d="M270.1,44c-0.1,0-0.2,0-0.2-0.1c-0.1,0-0.1-0.1-0.2-0.2c-0.1-0.1-0.1-0.1-0.1-0.2c0-0.1,0-0.2,0-0.2
	c0-0.1,0-0.2,0.1-0.2c0-0.1,0.1-0.1,0.2-0.2c0.1,0,0.1-0.1,0.2-0.1c0.1,0,0.2,0,0.2,0c0.1,0,0.2,0,0.2,0.1c0.1,0,0.1,0.1,0.2,0.2
	s0.1,0.1,0.1,0.2c0,0.1,0,0.2,0,0.2c0,0.2-0.1,0.3-0.3,0.4C270.4,44,270.2,44.1,270.1,44z"/>
<path class="st0" d="M274,48.7L274,48.7c0-1-0.7-1.7-1.6-1.7h-0.3c-0.9,0-1.6,0.7-1.6,1.6v0.1c0,0.9,0.7,1.6,1.6,1.6h0.3
	C273.3,50.2,274,49.5,274,48.7z"/>
<path class="st0" d="M273.9,43.1h-0.2c-0.6,0-1.1,0.5-1.1,1.1v0.1c0,0.6,0.5,1.1,1.1,1.1h0.2c0.6,0,1.1-0.5,1.1-1.1v-0.1
	C275,43.6,274.5,43.1,273.9,43.1z"/>
<path class="st0" d="M267.9,41.9h-0.6v0.6h0.6V41.9z"/>
<path class="st0" d="M275.9,47.6h-0.6v0.6h0.6V47.6z"/>
<path class="st0" d="M273.2,39.9h-0.6v0.6h0.6V39.9z"/>
<path class="st0" d="M264.4,48.9h-0.6v0.6h0.6V48.9z"/>
</svg>
