<svg width="242" height="70" viewBox="0 0 242 70" fill="none" xmlns="http://www.w3.org/2000/svg">
<path d="M241.529 0.173828H0.538574V69.4809H241.529V0.173828Z" fill="black"/>
<path d="M26.0601 44.8793V43.9099L35.7586 28.8388H26.5312V25.1152H41.9329V26.0846L32.2207 41.1603H42.3541V44.8793H26.0601Z" fill="white"/>
<path d="M46.6079 25.1152H61.4297V28.8071H50.7664V33.0607H60.116V36.7481H50.7664V41.192H61.5566V44.8793H46.6079V25.1152Z" fill="white"/>
<path d="M70.1271 44.8793H65.9324V25.1152H73.9729C78.9558 25.1152 81.1981 27.4935 81.1981 31.1536C81.1981 33.3416 80.4145 35.4661 78.1631 36.6892L82.6658 44.8793H78L74.1904 37.7719C73.7827 37.8036 73.3795 37.8036 72.9401 37.8036C71.9996 37.7967 71.0603 37.7346 70.1271 37.6179V44.8793ZM70.1271 33.9667C71.0748 34.1554 72.0374 34.26 73.0035 34.2793C75.0058 34.2793 76.9128 33.6859 76.9128 31.3394C76.9128 29.5546 75.5539 28.7437 73.2527 28.7437H70.1271V33.9667Z" fill="white"/>
<path d="M85.9817 35.0888C86.0406 28.9598 90.2625 24.7695 96.4865 24.7695C102.711 24.7695 106.905 28.9598 106.964 35.0888C106.901 41.1907 102.774 45.4443 96.4865 45.4443C90.199 45.4443 86.0406 41.1907 85.9817 35.0888ZM102.557 35.0888C102.557 31.1206 99.961 28.6472 96.4865 28.6472C93.0121 28.6472 90.4527 31.1206 90.4527 35.0888C90.4527 39.0571 93.0166 41.5032 96.4865 41.5032C99.9564 41.5032 102.557 39.0616 102.557 35.0888Z" fill="white"/>
<path d="M128.386 44.8852H123.969V24.21H132.123C138.207 24.21 140.467 27.5486 140.467 31.5396C140.467 36.9757 136.277 38.9644 131.992 38.9644C130.786 38.9816 129.582 38.883 128.395 38.6699L128.386 44.8852ZM128.386 35.0368C129.371 35.1842 130.366 35.2508 131.362 35.2361C133.913 35.2361 135.842 34.2214 135.842 31.4399C135.842 29.5781 135.027 28.0696 131.856 28.0696H128.386V35.0368Z" fill="white"/>
<path d="M145.554 24.21H149.971V44.8852H145.554V24.21Z" fill="white"/>
<path d="M154.746 44.8852V43.8704L164.888 28.1058H155.239V24.21H171.316V25.2247L161.192 40.9939H171.769V44.8852H154.746Z" fill="white"/>
<path d="M175.447 44.8852V43.8704L185.59 28.1058H175.941V24.21H192.031V25.2247L181.893 40.9939H192.489V44.8852H175.447Z" fill="white"/>
<path d="M194.124 44.8844H216.008L214.037 40.9922H196.045L194.124 44.8844Z" fill="white"/>
<path d="M213.322 39.5166L205.576 24.209H204.362L196.81 39.5166H213.322Z" fill="white"/>
<path d="M205.567 26.8134C205.62 26.8748 205.66 26.9465 205.685 27.024C205.71 27.1015 205.718 27.1832 205.71 27.2642C205.702 27.3451 205.677 27.4235 205.638 27.4947C205.599 27.5658 205.545 27.6281 205.481 27.6778C205.347 27.7795 205.179 27.8276 205.012 27.8125C204.844 27.7974 204.688 27.7204 204.574 27.5964C204.52 27.5352 204.48 27.4636 204.455 27.3861C204.43 27.3085 204.421 27.2265 204.429 27.1454C204.437 27.0643 204.462 26.9857 204.502 26.9146C204.541 26.8434 204.596 26.7813 204.661 26.7319C204.795 26.6322 204.962 26.5854 205.129 26.6004C205.296 26.6154 205.452 26.6912 205.567 26.8134Z" fill="black"/>
<path d="M201.213 35.67C201.143 35.5804 201.092 35.4772 201.063 35.3669C201.034 35.2567 201.029 35.1417 201.047 35.0291C201.064 34.9166 201.105 34.8089 201.167 34.7129C201.228 34.6169 201.309 34.5346 201.404 34.4711C201.599 34.336 201.838 34.2796 202.073 34.3132C202.309 34.3467 202.522 34.4678 202.672 34.6521C202.742 34.742 202.792 34.8452 202.821 34.9553C202.849 35.0655 202.855 35.1803 202.837 35.2927C202.819 35.405 202.778 35.5125 202.717 35.6085C202.656 35.7046 202.576 35.7871 202.482 35.851C202.286 35.9861 202.047 36.0425 201.812 36.0089C201.577 35.9754 201.363 35.8543 201.213 35.67Z" fill="black"/>
<path d="M201.666 35.354C201.64 35.3201 201.62 35.2811 201.61 35.2394C201.599 35.1976 201.597 35.1541 201.604 35.1116C201.61 35.069 201.626 35.0284 201.649 34.9921C201.672 34.9558 201.703 34.9248 201.739 34.9009C201.812 34.8488 201.903 34.8268 201.992 34.8394C202.082 34.8521 202.163 34.8984 202.219 34.9688C202.245 35.0027 202.265 35.0418 202.276 35.0835C202.286 35.1252 202.288 35.1687 202.282 35.2113C202.275 35.2538 202.259 35.2945 202.236 35.3307C202.213 35.367 202.182 35.3981 202.146 35.422C202.072 35.472 201.982 35.4927 201.893 35.4802C201.805 35.4676 201.724 35.4227 201.666 35.354Z" fill="black"/>
<path d="M202.35 37.7717C202.232 37.7559 202.125 37.6942 202.052 37.6001C201.98 37.506 201.947 37.387 201.961 37.2688C201.971 37.2093 201.992 37.1524 202.024 37.1014C202.056 37.0504 202.098 37.0063 202.148 36.9717C202.197 36.9371 202.253 36.9127 202.312 36.8999C202.371 36.8872 202.431 36.8863 202.491 36.8973C202.609 36.9132 202.716 36.9748 202.789 37.0689C202.861 37.163 202.894 37.282 202.88 37.4002C202.87 37.4597 202.849 37.5166 202.817 37.5676C202.785 37.6186 202.743 37.6627 202.693 37.6973C202.644 37.7319 202.588 37.7563 202.529 37.7691C202.47 37.7819 202.41 37.7827 202.35 37.7717Z" fill="black"/>
<path d="M210.078 38.3058C209.961 38.2899 209.855 38.229 209.782 38.1359C209.709 38.0429 209.676 37.9251 209.689 37.8077C209.699 37.7482 209.72 37.6914 209.752 37.6404C209.784 37.5894 209.826 37.5453 209.876 37.5107C209.925 37.4761 209.981 37.4517 210.04 37.439C210.099 37.4262 210.159 37.4253 210.219 37.4364C210.337 37.4522 210.444 37.5138 210.517 37.6078C210.589 37.7019 210.622 37.8209 210.608 37.939C210.598 37.998 210.576 38.0544 210.544 38.1049C210.511 38.1554 210.469 38.1989 210.42 38.2331C210.371 38.2672 210.315 38.2912 210.256 38.3037C210.198 38.3161 210.137 38.3168 210.078 38.3058Z" fill="black"/>
<path d="M203.596 30.7179C203.501 30.7072 203.409 30.6777 203.325 30.631C203.241 30.5843 203.168 30.5214 203.108 30.4459C203.049 30.3704 203.006 30.2839 202.981 30.1914C202.956 30.0989 202.949 30.0024 202.962 29.9074C202.999 29.7151 203.11 29.5449 203.271 29.4326C203.431 29.3203 203.629 29.2746 203.823 29.3052C203.918 29.3169 204.009 29.3474 204.093 29.3948C204.176 29.4422 204.249 29.5056 204.307 29.5814C204.366 29.6572 204.409 29.7438 204.434 29.8363C204.459 29.9288 204.465 30.0253 204.452 30.1202C204.416 30.3118 204.306 30.4816 204.146 30.5933C203.986 30.7049 203.789 30.7496 203.596 30.7179Z" fill="black"/>
<path d="M204.239 33.4186C204.178 33.4126 204.118 33.3941 204.064 33.3643C204.01 33.3344 203.963 33.2939 203.925 33.2452C203.888 33.1964 203.86 33.1405 203.845 33.0808C203.829 33.0211 203.826 32.959 203.836 32.8981C203.845 32.836 203.866 32.7763 203.899 32.7229C203.931 32.6694 203.975 32.6234 204.026 32.5877C204.078 32.5519 204.136 32.5272 204.198 32.5152C204.26 32.5032 204.323 32.5041 204.384 32.5178C204.445 32.5239 204.504 32.5423 204.558 32.5718C204.611 32.6014 204.658 32.6415 204.696 32.6897C204.734 32.7379 204.761 32.7933 204.777 32.8525C204.793 32.9116 204.796 32.9733 204.787 33.0339C204.764 33.1567 204.694 33.2657 204.591 33.3375C204.489 33.4094 204.363 33.4385 204.239 33.4186Z" fill="black"/>
<path d="M207.243 36.916V36.8571C207.243 36.1939 206.705 35.6562 206.042 35.6562H205.847C205.184 35.6562 204.647 36.1939 204.647 36.8571V36.916C204.647 37.5791 205.184 38.1168 205.847 38.1168H206.042C206.705 38.1168 207.243 37.5791 207.243 36.916Z" fill="black"/>
<path d="M207.147 32.7344H207.012C206.549 32.7344 206.174 33.1098 206.174 33.5729V33.6137C206.174 34.0768 206.549 34.4522 207.012 34.4522H207.147C207.61 34.4522 207.985 34.0768 207.985 33.6137V33.5729C207.985 33.1098 207.61 32.7344 207.147 32.7344Z" fill="black"/>
<path d="M202.577 31.7969H202.097V32.2506H202.577V31.7969Z" fill="black"/>
<path d="M208.665 36.0898H208.185V36.5432H208.665V36.0898Z" fill="black"/>
<path d="M206.604 30.3076H206.124V30.759H206.604V30.3076Z" fill="black"/>
<path d="M199.999 37.0742H199.519V37.5273H199.999V37.0742Z" fill="black"/>
</svg>
