<svg width="30" height="30" viewBox="0 0 30 30" fill="none" xmlns="http://www.w3.org/2000/svg">
<path d="M15 0C12.0333 0 9.13319 0.879734 6.66645 2.52796C4.19972 4.17618 2.27713 6.51886 1.14181 9.25975C0.00649914 12.0006 -0.290551 15.0166 0.288227 17.9263C0.867006 20.8361 2.29562 23.5088 4.3934 25.6066C6.49119 27.7044 9.16393 29.133 12.0736 29.7118C14.9834 30.2905 17.9994 29.9935 20.7403 28.8582C23.4811 27.7229 25.8238 25.8003 27.472 23.3335C29.1203 20.8668 30 17.9667 30 15C30 11.0218 28.4196 7.20644 25.6066 4.3934C22.7936 1.58035 18.9782 0 15 0V0Z" fill="#39B54A"/>
<path d="M21.4869 20.6398L20.5038 21.6229C20.2913 21.767 20.0506 21.8645 19.7977 21.9091C18.254 21.9233 16.723 21.6293 15.2944 21.0443C13.8659 20.4592 12.5684 19.595 11.4781 18.5021C10.3878 17.4092 9.52659 16.1097 8.94494 14.6797C8.36329 13.2498 8.0729 11.7181 8.09077 10.1744C8.14032 9.93262 8.23845 9.70337 8.37924 9.5006L9.36231 8.51522C9.56732 8.33118 9.81526 8.20156 10.0834 8.13826C10.3515 8.07496 10.6313 8.08 10.8969 8.15291L11.1046 8.22214C11.3673 8.32663 11.6042 8.48706 11.7986 8.69229C11.9931 8.89752 12.1406 9.14264 12.2308 9.4106L12.7246 11.2268C12.7837 11.4993 12.7778 11.782 12.7072 12.0518C12.6366 12.3217 12.5034 12.5711 12.3185 12.7798L11.6608 13.4375C11.9791 14.6121 12.5992 15.6829 13.4594 16.5436C14.3197 17.4042 15.3902 18.0248 16.5646 18.3437L17.22 17.6883C17.4289 17.5027 17.6786 17.369 17.9488 17.298C18.2191 17.2271 18.5023 17.2208 18.7754 17.2798L20.5915 17.7691C20.859 17.8589 21.1037 18.0057 21.3089 18.1993C21.5141 18.393 21.6748 18.6288 21.78 18.8906L21.8492 19.1006C21.9215 19.366 21.9262 19.6452 21.863 19.9128C21.7997 20.1805 21.6704 20.428 21.4869 20.6329V20.6398Z" fill="white"/>
</svg>
